<?xml version="1.0" encoding="utf-8"?>
<!-- Generator: Adobe Illustrator 21.0.0, SVG Export Plug-In . SVG Version: 6.00 Build 0)  -->
<svg version="1.1" id="图层_1" xmlns="http://www.w3.org/2000/svg" xmlns:xlink="http://www.w3.org/1999/xlink" x="0px" y="0px"
	 viewBox="0 0 300 300" style="enable-background:new 0 0 300 300;" xml:space="preserve">
<style type="text/css">
	.st0{fill:#040000;}
</style>
<g>
	<path class="st0" d="M227.9,133.5c0.4,0.7,1.2,0.9,2.1,0.6c0.4-0.6,0.5-1.4,0.2-2c-0.3-0.5-0.7-0.8-1.2-0.9c0,0,0,0-0.1,0
		C227.9,131.7,227.5,132.7,227.9,133.5z"/>
	<path class="st0" d="M202.3,96.4c-1-1.5-2.7-2.6-4.6-2.6c-3,0-5.4,2.4-5.4,5.4c0,2.9,2.2,5.2,5.1,5.4c-0.2-0.6-0.2-1.2-0.2-1.8
		C197.1,99.7,199.3,97,202.3,96.4z"/>
	<path class="st0" d="M227.5,76.3c0.6,0,1.1-0.2,1.7-0.3c0.4-0.1,0.8-0.1,1.1-0.2c0.5-0.2,1-0.6,1.4-0.9c0.3-0.2,0.6-0.3,0.9-0.6
		c0.4-0.4,0.7-1,1-1.5c0.2-0.3,0.4-0.5,0.6-0.8c0.4-0.9,0.6-1.8,0.6-2.8c0-3-1.8-5.5-4.3-6.7c1.5,1.3,2.5,3.3,2.5,5.5
		c0,1-0.2,1.9-0.6,2.8c-0.1,0.2-0.2,0.3-0.3,0.5c-0.3,0.7-0.7,1.3-1.2,1.8c-0.2,0.2-0.6,0.4-0.9,0.6c-0.5,0.3-0.9,0.7-1.4,1
		c-0.4,0.2-0.8,0.2-1.3,0.3c-0.5,0.1-1,0.3-1.6,0.3c-1,0-2-0.2-2.8-0.6C224,75.6,225.7,76.3,227.5,76.3
		C227.5,76.3,227.5,76.3,227.5,76.3z"/>
	<path class="st0" d="M231.6,80c0.5,0,0.9-0.2,1.3-0.2c0.5-0.1,0.9-0.1,1.4-0.2c0.6-0.2,1.2-0.5,1.8-0.9c0.4-0.2,0.8-0.4,1.1-0.7
		c0.6-0.5,1-1,1.5-1.6c0.2-0.3,0.5-0.5,0.7-0.9c0.6-1,1-2,1.1-3.2c0.5-3.7-1.3-7.1-4.3-8.9c1.7,1.9,2.5,4.5,2.2,7.2
		c-0.2,1.2-0.6,2.3-1.1,3.2c-0.2,0.3-0.5,0.6-0.7,0.9c-0.4,0.6-0.9,1.2-1.5,1.6c-0.3,0.3-0.7,0.4-1.1,0.7c-0.6,0.3-1.1,0.7-1.8,0.9
		c-0.4,0.1-0.9,0.2-1.4,0.2c-0.8,0.1-1.7,0.3-2.6,0.2c-1.2-0.2-2.4-0.6-3.4-1.2c1.4,1.6,3.3,2.7,5.5,3C230.7,80,231.1,80,231.6,80z"
		/>
	<path class="st0" d="M220.5,72.9c-0.8,0-1.6-0.2-2.4-0.5c1,0.9,2.4,1.4,3.9,1.4c3.3,0,6-2.7,6-6c0-2.5-1.5-4.6-3.6-5.5
		c1.3,1.1,2.1,2.7,2.1,4.5C226.4,70.2,223.8,72.9,220.5,72.9z"/>
	<path class="st0" d="M209.3,11.1c-17.8-6.8-36.2-10-54.1-10C94.7,1.1,38.1,37.4,15.6,96.6C-2.4,144,5.8,195,33.1,234.1
		c16.9,24.1,41,43.7,70.7,54.9c17.9,6.8,36.2,10,54.2,10c34.8,0,68.4-12,94.9-33.6c-15.7,8.1-33.5,12.7-52.3,12.7
		c-0.7,0-1.3-0.1-1.9-0.1c27.9-5,50.6-24.8,59.4-51.1c-0.1,0.1-0.2,0.1-0.3,0.2c1.5-3.7,2.6-7.4,3-10.9l5.9-1.8
		c-1.9,0.5-3.9,1-6,1.5l-45.7,9.4l-2-6.2c0,0,0.1,0,0.1,0c-0.1,0-0.1,0-0.1,0l-0.1-0.3l0.2-0.1c0,0,0,0.2,0,0.2
		c0,0,50.5-10.4,50.5-10.4c0-0.2-0.1-0.4-0.1-0.6c-1.5-7.3-1.4-11.6-1.3-13c0-0.4,0-0.6,0-0.6l-46.1,9.5c-0.2,0-0.4-0.1-0.6-0.1
		l0.3-0.1c0,0,0,0,0,0l36-7.4c0,0,0,0,0,0l10.3-2.1c-6.4-11.4-5.9-28.7-5.9-28.7l-46.8,9.6c-1.9,14.7,5.8,28.4,5.9,28.6
		c-5.2-0.7-10.4-2.4-15.1-5.5c-15.2-10-20.2-29.6-12.4-45.4c-7.6,2.3-14.6,7.2-19.3,14.3c-10.8,16.3-6.2,38.3,10.3,49.2
		c6.3,4.1,13.3,5.8,20.2,5.7c-6.3,10.3-8.3,21-5.5,29c-3.7-7-3.1-16.8,1.7-26.8c-7.1-0.7-14.1-3.4-20.1-8.3
		c-16-13-18.5-36.5-5.5-52.4c5.7-7,13.4-11.4,21.7-13c-0.1,0.1-0.1,0.2-0.2,0.3c3.2-4,7-7.5,11.2-10.4c-0.3-0.1-0.6-0.2-0.9-0.3
		c0.9-0.1,1.8-0.1,2.6-0.2c-2.9-6-9.1-20.3-8.3-32.1c0-0.7,0.1-1.3,0.3-2c-4.1-0.2-7.4-3.6-7.4-7.8c0-4.3,3.5-7.8,7.8-7.8
		c2.9,0,5.5,1.6,6.9,4c3.8-3.1,8.6-4.9,13.2-4.9c2.8,0,5.5,0.7,7.9,2.1c7.1,4.3,10.2,11.6,9.9,20.6c0.6-2.6,0.9-5.4,0.9-8.2
		c0-20.2-16.3-36.5-36.5-36.5c-20.2,0-36.5,16.3-36.5,36.5c0,1.1,0.2,2.1,0.3,3.1c-1.1,0.6-2.4,0.9-3.7,0.9c-1.3,0-2.5-0.2-3.5-0.7
		c1.5,1.3,3.5,2,5.6,2c0.1,0,0.1,0,0.1,0c0.1,0,0.1,0,0.2,0c0.6,0,1.1-0.2,1.6-0.3c0,0.3,0,0.5,0.1,0.8c-0.8,0.2-1.6,0.5-2.4,0.5
		c-1.3,0-2.5-0.2-3.5-0.7c1.5,1.3,3.5,2,5.6,2c0.1,0,0.1,0,0.1,0s0.1,0,0.2,0c0.1,0,0.2-0.1,0.4-0.1c0.1,0.3,0.2,0.5,0.2,0.8
		c-0.5,0.1-0.9,0.3-1.3,0.3c-1.3,0-2.5-0.2-3.5-0.7c1.5,1.2,3.4,1.9,5.4,2c1.4,4.8,3.7,9.1,6.7,12.8c-35.6,6.8-62.6,37.8-62.6,75.4
		c0,33.9,22,62.3,52.4,72.6c-0.3,0-0.5,0-0.8,0c-73.7,0-133.4-59.7-133.4-133.4C26.3,67.9,86,8.2,159.6,8.2c1.5,0,3,0,4.5,0.1l0-0.1
		c54.5,0,101.9,30.5,126.1,75.4c0.3,0.4,0.7,0.8,1,1.2C274.8,52.2,246.4,25.2,209.3,11.1z M215.5,204L215.5,204c0.1,0,0.1,0.1,0,0.1
		L215.5,204z M212.9,218.8c-0.1,0-0.1,0-0.1,0c0-0.2,0-0.4-0.1-1L212.9,218.8L212.9,218.8z M262.9,208.1L262.9,208.1
		c-4.4,1-32.9,6.8-44.7,9.3l-2.5-12.1c0.1-0.2,0.1-0.5,0.3-0.7l45.6-9.4C261.5,196.8,261.5,201.1,262.9,208.1z"/>
	<path class="st0" d="M228.5,123.7c-0.1,2.9,0.7,5.6,2.1,7.8c-0.9-2.2-1.3-4.6-1.2-7.2c0.2-4.2,1.8-7.9,4.3-10.8
		C230.7,115.9,228.6,119.5,228.5,123.7z"/>
	<path class="st0" d="M208.1,128.9c-0.2,4.7,1.5,8.9,4.9,11.2c2.4,1.6,5.3,2,8.3,1.5c-2.5-0.1-4.9-0.8-7-2.2
		C210.8,137.1,208.7,133.3,208.1,128.9z"/>
	<path class="st0" d="M198.5,101.8c0.7-2,2.3-3.6,4.4-4.5c-2.4,0.5-4.2,2-4.9,4c-0.5,1.4-0.3,2.9,0.4,4.3
		C198.1,104.4,198.1,103.1,198.5,101.8z"/>
	<path class="st0" d="M229.6,140.1c1.5-1.9,1.9-4.3,1.5-6.9c-0.1,2.2-0.8,4.1-2.1,5.8c-2.1,2.7-5.5,4-9.4,4
		C223.7,143.7,227.4,142.8,229.6,140.1z"/>
	<ellipse transform="matrix(0.8959 -0.4442 0.4442 0.8959 -26.3112 110.3038)" class="st0" cx="222.2" cy="111.3" rx="3" ry="3"/>
	<path class="st0" d="M222.2,105.9c-2.1,0-3.8,1.7-3.8,3.8c0,0.4,0.1,0.7,0.1,1c0.4-1.6,1.9-2.8,3.7-2.8c1.8,0,3.2,1.2,3.7,2.8
		c0.1-0.3,0.1-0.7,0.1-1C226,107.6,224.3,105.9,222.2,105.9z M222.2,107.3c-1.1,0-2.2,0.4-3,1.1c0.5-1.2,1.6-2,3-2
		c1.3,0,2.5,0.8,3,2C224.4,107.7,223.3,107.3,222.2,107.3z"/>
	<path class="st0" d="M265.5,165.4l-4.6,0.9c-1.1,5.4-2.1,14.7,0.1,22.8C259,178.6,265.5,165.4,265.5,165.4z"/>
	<path class="st0" d="M262.9,194.2c-0.2-0.4-0.3-0.9-0.5-1.3C262.6,193.3,262.6,193.8,262.9,194.2L262.9,194.2z"/>
	<path class="st0" d="M262.4,192.9c-0.5-1.2-0.9-2.5-1.3-3.8C261.4,190.5,261.8,191.7,262.4,192.9z"/>
	<path class="st0" d="M262.5,193.9L262.5,193.9c-6.7-12.4-0.9-32.1-0.9-32.1l-47.5,9.8c-0.1,0.7-0.1,1.4-0.2,2.1l42.6-8.8
		C256.6,164.9,256,182.4,262.5,193.9z"/>
	<path class="st0" d="M243.3,215.1c5.9-0.6,13.4-2.6,13.4-2.6l6.6-2C255,212.9,243.3,215.1,243.3,215.1z"/>
	<path class="st0" d="M244.3,215.6c3.8-0.4,8.6-1.6,8.6-1.6l4.2-1.3C251.9,214.1,244.3,215.6,244.3,215.6z"/>
	<path class="st0" d="M250.8,215.2l3-0.9c-3.8,1.1-9.2,2.1-9.2,2.1C247.4,216.1,250.8,215.2,250.8,215.2z"/>
</g>
</svg>
